<?xml version="1.0" standalone="no"?>
<!DOCTYPE svg PUBLIC "-//W3C//DTD SVG 20010904//EN"
 "http://www.w3.org/TR/2001/REC-SVG-20010904/DTD/svg10.dtd">
<svg version="1.0" xmlns="http://www.w3.org/2000/svg"
 width="1136.000000pt" height="284.000000pt" viewBox="0 0 1136.000000 284.000000"
 preserveAspectRatio="xMidYMid meet">

<g transform="translate(0.000000,284.000000) scale(0.100000,-0.100000)"
fill="#000000" stroke="none">
<path d="M145 2818 c-3 -13 -35 -149 -71 -303 -35 -154 -67 -288 -70 -297 -5
-17 24 -18 515 -18 480 0 521 -1 521 -17 0 -15 -483 -2122 -496 -2165 -5 -17
15 -18 333 -18 l339 0 244 1058 c134 581 247 1076 252 1100 l10 42 524 0 524
0 5 23 c3 12 35 148 71 302 35 154 67 288 70 298 5 16 -65 17 -1380 17 l-1386
0 -5 -22z"/>
<path d="M3212 2798 c-46 -184 -433 -1867 -441 -1918 -18 -108 -13 -284 9
-378 58 -243 218 -394 498 -470 l97 -26 659 -4 c717 -3 776 0 963 54 234 68
456 220 602 415 75 99 161 269 201 397 26 84 460 1934 460 1962 0 7 -108 10
-335 10 l-335 0 -5 -22 c-3 -13 -97 -420 -210 -905 -130 -567 -213 -903 -229
-939 -32 -69 -156 -196 -236 -241 -30 -18 -91 -44 -135 -60 l-80 -28 -407 -3
c-447 -4 -516 1 -613 47 -84 39 -129 82 -167 158 -25 52 -32 77 -32 126 0 45
57 305 207 952 114 490 207 896 207 903 0 9 -73 12 -334 12 l-334 0 -10 -42z"/>
<path d="M7359 2825 c-481 -75 -828 -371 -984 -838 -25 -75 -465 -1951 -465
-1982 0 -3 152 -4 337 -3 l337 3 125 547 126 548 941 0 940 0 75 318 75 317
-924 3 -923 2 7 23 c4 12 35 78 69 147 90 179 156 238 292 260 32 6 399 13
815 18 416 4 759 10 763 14 4 4 38 139 76 300 38 161 71 303 74 316 l5 22
-837 -1 c-649 -1 -858 -4 -924 -14z"/>
</g>
</svg>
